<svg width="43" height="38" viewBox="0 0 43 38" fill="none" xmlns="http://www.w3.org/2000/svg">
<path d="M37.9927 5.00585C37.0398 4.05291 35.9083 3.29697 34.663 2.78121C33.4177 2.26546 32.083 2 30.735 2C29.387 2 28.0522 2.26546 26.8069 2.78121C25.5616 3.29697 24.4301 4.05291 23.4772 5.00585L21.4995 6.98261L19.5218 5.00585C17.5969 3.08187 14.9862 2.001 12.264 2.001C9.54184 2.001 6.93115 3.08187 5.00627 5.00585C3.08139 6.92982 2 9.53929 2 12.2602C2 14.9811 3.08139 17.5906 5.00627 19.5145L6.98396 21.4913L21.4995 36L36.015 21.4913L37.9927 19.5145C38.9461 18.562 39.7024 17.4311 40.2184 16.1864C40.7344 14.9417 41 13.6075 41 12.2602C41 10.9128 40.7344 9.5787 40.2184 8.33398C39.7024 7.08925 38.9461 5.95834 37.9927 5.00585V5.00585Z" fill="white" stroke="white" stroke-width="4" stroke-linecap="round" stroke-linejoin="round"/>
</svg>
