<svg width="56" height="55" viewBox="0 0 56 55" fill="none" xmlns="http://www.w3.org/2000/svg">
<path d="M55.2547 50.7325L40.8087 36.5444C44.059 32.5602 45.8264 27.6053 45.8181 22.5C45.8181 10.0737 35.5618 0 22.9091 0C10.2569 0 0 10.0737 0 22.5C0 34.9263 10.2569 45 22.9091 45C28.3181 45 33.2894 43.1587 37.2088 40.0794L51.6548 54.2675C51.8909 54.5 52.1714 54.6844 52.4802 54.8101C52.7891 54.9358 53.1201 55.0003 53.4545 55C53.9579 55 54.45 54.8534 54.8686 54.5788C55.2872 54.3041 55.6134 53.9137 55.8061 53.4569C55.9988 53.0002 56.0493 52.4975 55.9511 52.0126C55.853 51.5276 55.6106 51.0822 55.2547 50.7325ZM22.9091 40C13.0683 40 5.0909 32.165 5.0909 22.5C5.0909 12.835 13.0683 5 22.9091 5C32.7504 5 40.7272 12.835 40.7272 22.5C40.7272 32.165 32.7504 40 22.9091 40Z" fill="black"/>
</svg>
