<svg width="56" height="62" viewBox="0 0 56 62" fill="none" xmlns="http://www.w3.org/2000/svg">
<path d="M28 27.5556C31.713 27.5556 35.274 26.104 37.8995 23.5201C40.525 20.9363 42 17.4319 42 13.7778C42 10.1237 40.525 6.61925 37.8995 4.03542C35.274 1.45158 31.713 0 28 0C24.287 0 20.726 1.45158 18.1005 4.03542C15.475 6.61925 14 10.1237 14 13.7778C14 17.4319 15.475 20.9363 18.1005 23.5201C20.726 26.104 24.287 27.5556 28 27.5556ZM28 34.4444C22.5657 34.4404 17.2053 35.6837 12.3447 38.0754C7.48416 40.4671 3.25731 43.9414 0 48.2222C3.25731 52.5031 7.48416 55.9773 12.3447 58.3691C17.2053 60.7608 22.5657 62.004 28 62C33.4343 62.004 38.7947 60.7608 43.6553 58.3691C48.5158 55.9773 52.7427 52.5031 56 48.2222C52.7427 43.9414 48.5158 40.4671 43.6553 38.0754C38.7947 35.6837 33.4343 34.4404 28 34.4444Z" fill="white"/>
</svg>
